<?xml version="1.0" encoding="utf-8"?>
<!-- Generator: Adobe Illustrator 16.0.4, SVG Export Plug-In . SVG Version: 6.00 Build 0)  -->
<!DOCTYPE svg PUBLIC "-//W3C//DTD SVG 1.1//EN" "http://www.w3.org/Graphics/SVG/1.1/DTD/svg11.dtd">
<svg version="1.1" id="Layer_1" xmlns="http://www.w3.org/2000/svg" xmlns:xlink="http://www.w3.org/1999/xlink" x="0px" y="0px"
	 width="94px" height="100px" viewBox="0 0 94 100" enable-background="new 0 0 94 100" xml:space="preserve">
<g>
	<g>
		<polygon fill="#262729" points="34.849,35.005 34.849,41.079 47.001,28.928 59.151,41.079 59.151,35.005 47.001,22.856 		"/>
		<polygon fill="#262729" points="34.849,27.16 34.849,33.232 47.001,21.084 59.151,33.232 59.151,27.16 47.001,15.008 		"/>
		<polygon fill="#262729" points="57.102,17.259 57.102,11.973 54.402,11.973 54.402,14.562 47.001,7.163 34.849,19.311 
			34.849,25.386 47.001,13.238 59.151,25.386 59.151,19.311 		"/>
	</g>
	<path fill="#262729" d="M46.997,51.171c-14.11,0-25.588-11.477-25.588-25.585C21.409,11.478,32.887,0,46.997,0
		c14.113,0,25.594,11.478,25.594,25.585C72.591,39.694,61.109,51.171,46.997,51.171z M46.997,2.61
		c-12.67,0-22.978,10.306-22.978,22.975s10.308,22.976,22.978,22.976c12.672,0,22.984-10.307,22.984-22.976S59.669,2.61,46.997,2.61
		z"/>
	<g>
		<g>
			<path fill="#262729" d="M0.012,79.847V56.916h3.492v9.276h3.128v-9.276h3.493v22.931H6.631V69.188H3.503v10.658H0.012z"/>
			<path fill="#262729" d="M13.145,79.847V56.916h7.689v3.01h-4.196v6.671h3.988v2.943h-3.988v7.297h4.353v3.01H13.145z"/>
			<path fill="#262729" d="M23.14,79.847l3.271-22.931h4.614l3.48,22.931h-3.258l-0.547-4.091h-3.702l-0.495,4.091H23.14z
				 M30.334,72.955l-1.538-11.518h-0.053l-1.407,11.518H30.334z"/>
			<path fill="#262729" d="M37.542,79.847V59.938h-2.684v-3.021h8.744v3.021h-2.581v19.909H37.542z"/>
			<path fill="#262729" d="M49.857,73.397v-2.045h3.311v2.307c0,1.276,0.106,2.174,0.324,2.689c0.218,0.518,0.625,0.775,1.226,0.775
				c0.6,0,0.997-0.212,1.193-0.639c0.195-0.425,0.292-1.12,0.292-2.084c0-0.965-0.173-1.805-0.522-2.522
				c-0.346-0.716-0.898-1.465-1.653-2.247l-1.693-1.744c-0.791-0.827-1.406-1.682-1.846-2.569c-0.438-0.885-0.657-1.91-0.657-3.073
				c0-1.895,0.364-3.302,1.095-4.223c0.729-0.92,1.984-1.38,3.766-1.38c1.782,0,2.987,0.535,3.617,1.608
				c0.629,1.074,0.944,2.639,0.944,4.696v1.422h-3.218v-1.642c0-1.112-0.098-1.91-0.288-2.393c-0.191-0.482-0.56-0.722-1.1-0.722
				c-0.545,0-0.937,0.183-1.174,0.547c-0.239,0.363-0.359,0.911-0.359,1.641c0,0.73,0.121,1.312,0.366,1.747
				c0.242,0.434,0.681,0.988,1.315,1.668l1.891,2.046c0.946,1.024,1.662,2.062,2.143,3.113c0.483,1.051,0.725,2.198,0.725,3.44
				c0,2.145-0.361,3.73-1.082,4.755c-0.722,1.026-1.983,1.539-3.787,1.539c-1.802,0-3.056-0.571-3.765-1.716
				C50.211,77.252,49.857,75.587,49.857,73.397z"/>
			<path fill="#262729" d="M62.09,79.847V56.916h7.69v3.01h-4.197v6.671h3.99v2.943h-3.99v7.297h4.354v3.01H62.09z"/>
			<path fill="#262729" d="M72.593,79.847V56.916h7.689v3.01h-4.196v6.671h3.987v2.943h-3.987v7.297h4.353v3.01H72.593z"/>
			<path fill="#262729" d="M83.093,79.847V56.916h3.493v10.553l3.493-10.553h3.609l-3.806,11.31l4.105,11.621H90.3l-3.688-10.709
				v10.709H83.093z"/>
		</g>
	</g>
	<g>
		<g>
			<path fill="#262729" d="M42.551,99.911h-0.767L38.09,95.01l-0.547-0.838h-0.017v5.739h-0.838V92.77h0.767l3.72,4.937l0.521,0.803
				h0.017V92.77h0.837V99.911z"/>
			<path fill="#262729" d="M50.711,92.77l-2.97,4.144v2.998h-0.847v-2.998l-2.981-4.144h1.059l1.851,2.619l0.485,0.819h0.018
				l0.476-0.819l1.86-2.619H50.711z"/>
			<path fill="#262729" d="M56.677,94.384c-0.414-0.556-1.059-0.908-2.027-0.908c-1.869,0-2.646,1.312-2.646,2.909
				c0,1.57,0.741,2.821,2.636,2.821c0.97,0,1.613-0.343,2.028-0.898l0.625,0.6c-0.59,0.687-1.48,1.093-2.663,1.093
				c-2.3,0-3.489-1.446-3.489-3.615s1.242-3.704,3.499-3.704c1.208,0,2.08,0.407,2.672,1.096L56.677,94.384z"/>
		</g>
	</g>
	<rect x="25.343" y="85.829" fill="#262729" width="43.313" height="0.869"/>
</g>
</svg>
