<?xml version="1.0" encoding="utf-8"?>
<!-- Generator: Adobe Illustrator 16.0.4, SVG Export Plug-In . SVG Version: 6.00 Build 0)  -->
<!DOCTYPE svg PUBLIC "-//W3C//DTD SVG 1.1//EN" "http://www.w3.org/Graphics/SVG/1.1/DTD/svg11.dtd">
<svg version="1.1" id="Layer_1" xmlns="http://www.w3.org/2000/svg" xmlns:xlink="http://www.w3.org/1999/xlink" x="0px" y="0px"
	 width="24px" height="25px" viewBox="0 0 24 25" enable-background="new 0 0 24 25" xml:space="preserve">
<g>
	<g>
		<polygon fill="#262729" points="8.962,8.751 8.962,10.27 12,7.232 15.038,10.27 15.038,8.751 12,5.714 		"/>
		<polygon fill="#262729" points="8.962,6.79 8.962,8.308 12,5.271 15.038,8.308 15.038,6.79 12,3.752 		"/>
		<polygon fill="#262729" points="14.525,4.315 14.525,2.993 13.851,2.993 13.851,3.641 12,1.791 8.962,4.828 8.962,6.347 12,3.31 
			15.038,6.347 15.038,4.828 		"/>
	</g>
	<path fill="#262729" d="M11.999,12.792c-3.527,0-6.397-2.869-6.397-6.396S8.472,0,11.999,0c3.528,0,6.398,2.87,6.398,6.396
		S15.527,12.792,11.999,12.792z M11.999,0.653c-3.167,0-5.744,2.576-5.744,5.744c0,3.167,2.577,5.744,5.744,5.744
		c3.168,0,5.746-2.577,5.746-5.744C17.745,3.229,15.167,0.653,11.999,0.653z"/>
	<g>
		<g>
			<path fill="#262729" d="M0.253,19.961v-5.732h0.873v2.319h0.782v-2.319h0.874v5.732H1.908v-2.664H1.126v2.664H0.253z"/>
			<path fill="#262729" d="M3.536,19.961v-5.732h1.922v0.752H4.41v1.667h0.997v0.736H4.41v1.824h1.088v0.752H3.536z"/>
			<path fill="#262729" d="M6.035,19.961l0.818-5.732h1.153l0.87,5.732H8.062l-0.137-1.022H7l-0.124,1.022H6.035z M7.833,18.239
				l-0.384-2.879H7.436l-0.352,2.879H7.833z"/>
			<path fill="#262729" d="M9.635,19.961v-4.977H8.964v-0.755h2.186v0.755h-0.645v4.977H9.635z"/>
			<path fill="#262729" d="M12.714,18.349v-0.511h0.828v0.576c0,0.319,0.026,0.544,0.081,0.673s0.156,0.193,0.307,0.193
				c0.149,0,0.249-0.053,0.298-0.159s0.073-0.28,0.073-0.521s-0.043-0.451-0.131-0.63c-0.086-0.179-0.225-0.366-0.413-0.562
				l-0.424-0.436c-0.197-0.207-0.351-0.421-0.461-0.643c-0.109-0.221-0.165-0.478-0.165-0.769c0-0.474,0.091-0.825,0.274-1.056
				c0.182-0.229,0.496-0.345,0.941-0.345s0.747,0.134,0.904,0.402s0.236,0.659,0.236,1.174v0.355h-0.805v-0.41
				c0-0.278-0.024-0.478-0.072-0.599c-0.048-0.12-0.14-0.18-0.274-0.18c-0.137,0-0.234,0.045-0.294,0.137
				c-0.06,0.091-0.09,0.228-0.09,0.41c0,0.183,0.03,0.328,0.092,0.437c0.061,0.108,0.17,0.247,0.329,0.417l0.473,0.511
				c0.236,0.256,0.415,0.516,0.535,0.778c0.121,0.263,0.182,0.549,0.182,0.86c0,0.536-0.091,0.933-0.271,1.189
				c-0.181,0.256-0.496,0.385-0.947,0.385c-0.45,0-0.764-0.143-0.941-0.429C12.803,19.313,12.714,18.897,12.714,18.349z"/>
			<path fill="#262729" d="M15.772,19.961v-5.732h1.923v0.752h-1.05v1.667h0.998v0.736h-0.998v1.824h1.089v0.752H15.772z"/>
			<path fill="#262729" d="M18.398,19.961v-5.732h1.922v0.752h-1.049v1.667h0.997v0.736h-0.997v1.824h1.088v0.752H18.398z"/>
			<path fill="#262729" d="M21.023,19.961v-5.732h0.873v2.638l0.873-2.638h0.902l-0.951,2.827l1.026,2.905h-0.922l-0.922-2.677
				v2.677H21.023z"/>
		</g>
	</g>
	<g>
		<g>
			<path fill="#262729" d="M10.888,24.978h-0.192l-0.923-1.226l-0.137-0.209H9.631v1.435H9.422v-1.786h0.192l0.93,1.234l0.131,0.201
				h0.004v-1.435h0.209V24.978z"/>
			<path fill="#262729" d="M12.928,23.192l-0.743,1.036v0.75h-0.211v-0.75l-0.746-1.036h0.265l0.462,0.655l0.122,0.205h0.004
				l0.119-0.205l0.465-0.655H12.928z"/>
			<path fill="#262729" d="M14.419,23.596c-0.104-0.139-0.265-0.228-0.507-0.228c-0.467,0-0.661,0.328-0.661,0.728
				c0,0.393,0.186,0.705,0.659,0.705c0.242,0,0.403-0.085,0.507-0.225l0.156,0.15C14.426,24.898,14.203,25,13.907,25
				c-0.574,0-0.872-0.362-0.872-0.904s0.311-0.926,0.875-0.926c0.302,0,0.52,0.102,0.668,0.273L14.419,23.596z"/>
		</g>
	</g>
	<rect x="6.586" y="21.458" fill="#262729" width="10.828" height="0.217"/>
</g>
</svg>
