<?xml version="1.0" encoding="utf-8"?>
<!-- Generator: Adobe Illustrator 16.0.4, SVG Export Plug-In . SVG Version: 6.00 Build 0)  -->
<!DOCTYPE svg PUBLIC "-//W3C//DTD SVG 1.1//EN" "http://www.w3.org/Graphics/SVG/1.1/DTD/svg11.dtd">
<svg version="1.1" id="Layer_1" xmlns="http://www.w3.org/2000/svg" xmlns:xlink="http://www.w3.org/1999/xlink" x="0px" y="0px"
	 width="150px" height="150px" viewBox="0 0 150 150" enable-background="new 0 0 150 150" xml:space="preserve">
<g>
	<g>
		<polygon fill="#262729" points="56.774,52.508 56.774,61.619 75.002,43.392 93.227,61.619 93.227,52.508 75.002,34.284 		"/>
		<polygon fill="#262729" points="56.774,40.74 56.774,49.848 75.002,31.626 93.227,49.848 93.227,40.74 75.002,22.512 		"/>
		<polygon fill="#262729" points="90.153,25.889 90.153,17.96 86.104,17.96 86.104,21.843 75.002,10.744 56.774,28.966 
			56.774,38.08 75.002,19.857 93.227,38.08 93.227,28.966 		"/>
	</g>
	<path fill="#262729" d="M74.995,76.757c-21.165,0-38.382-17.216-38.382-38.379C36.613,17.216,53.831,0,74.995,0
		c21.17,0,38.393,17.216,38.393,38.378C113.388,59.541,96.165,76.757,74.995,76.757z M74.995,3.916
		c-19.004,0-34.466,15.459-34.466,34.462c0,19.004,15.462,34.464,34.466,34.464c19.01,0,34.476-15.46,34.476-34.464
		C109.471,19.375,94.005,3.916,74.995,3.916z"/>
	<g>
		<g>
			<path fill="#262729" d="M4.518,119.771V85.374h5.238v13.914h4.692V85.374h5.239v34.396h-5.239v-15.987H9.756v15.987H4.518z"/>
			<path fill="#262729" d="M24.218,119.771V85.374h11.534v4.515h-6.294v10.007h5.982v4.415h-5.982v10.945h6.529v4.515H24.218z"/>
			<path fill="#262729" d="M39.211,119.771l4.906-34.396h6.92l5.22,34.396h-4.887l-0.821-6.137h-5.552l-0.742,6.137H39.211z
				 M50.001,109.433l-2.306-17.276h-0.079l-2.111,17.276H50.001z"/>
			<path fill="#262729" d="M60.813,119.771V89.906h-4.026v-4.532h13.117v4.532h-3.872v29.864H60.813z"/>
			<path fill="#262729" d="M79.286,110.096v-3.067h4.966v3.46c0,1.915,0.16,3.261,0.487,4.035c0.325,0.775,0.938,1.163,1.838,1.163
				s1.496-0.318,1.79-0.958c0.293-0.638,0.438-1.681,0.438-3.126c0-1.448-0.26-2.707-0.783-3.784c-0.52-1.073-1.349-2.197-2.48-3.37
				L83,101.831c-1.186-1.24-2.108-2.522-2.767-3.854c-0.657-1.327-0.986-2.865-0.986-4.61c0-2.841,0.546-4.952,1.643-6.334
				c1.093-1.379,2.977-2.069,5.648-2.069c2.673,0,4.48,0.803,5.425,2.412c0.944,1.611,1.417,3.958,1.417,7.045v2.133h-4.827v-2.463
				c0-1.668-0.146-2.864-0.431-3.588c-0.288-0.725-0.84-1.083-1.651-1.083c-0.816,0-1.403,0.273-1.76,0.82
				c-0.359,0.545-0.538,1.367-0.538,2.461c0,1.096,0.181,1.969,0.549,2.621c0.363,0.649,1.021,1.482,1.973,2.501l2.835,3.069
				c1.42,1.537,2.494,3.094,3.215,4.67c0.725,1.576,1.086,3.297,1.086,5.16c0,3.218-0.541,5.596-1.623,7.133
				c-1.082,1.539-2.974,2.309-5.679,2.309c-2.704,0-4.585-0.856-5.649-2.573C79.816,115.878,79.286,113.38,79.286,110.096z"/>
			<path fill="#262729" d="M97.636,119.771V85.374h11.534v4.515h-6.294v10.007h5.983v4.415h-5.983v10.945h6.529v4.515H97.636z"/>
			<path fill="#262729" d="M113.39,119.771V85.374h11.534v4.515h-6.295v10.007h5.98v4.415h-5.98v10.945h6.529v4.515H113.39z"/>
			<path fill="#262729" d="M129.14,119.771V85.374h5.239v15.829l5.24-15.829h5.414l-5.708,16.964l6.157,17.433h-5.532l-5.532-16.063
				v16.063H129.14z"/>
		</g>
	</g>
	<g>
		<g>
			<path fill="#262729" d="M68.327,149.867h-1.151l-5.54-7.353l-0.821-1.257H60.79v8.609h-1.257v-10.713h1.15l5.581,7.405
				l0.782,1.204h0.026v-8.609h1.256V149.867z"/>
			<path fill="#262729" d="M80.567,139.154l-4.456,6.216v4.497h-1.27v-4.497l-4.472-6.216h1.589l2.776,3.929l0.728,1.229h0.026
				l0.714-1.229l2.791-3.929H80.567z"/>
			<path fill="#262729" d="M89.516,141.576c-0.621-0.834-1.588-1.363-3.041-1.363c-2.805,0-3.969,1.97-3.969,4.364
				c0,2.355,1.111,4.232,3.954,4.232c1.455,0,2.42-0.515,3.043-1.349l0.938,0.899c-0.886,1.03-2.222,1.64-3.994,1.64
				c-3.451,0-5.235-2.169-5.235-5.423c0-3.253,1.863-5.556,5.249-5.556c1.812,0,3.121,0.61,4.008,1.643L89.516,141.576z"/>
		</g>
	</g>
	<rect x="42.515" y="128.743" fill="#262729" width="64.969" height="1.304"/>
</g>
</svg>
