<?xml version="1.0" encoding="utf-8"?>
<!-- Generator: Adobe Illustrator 16.0.4, SVG Export Plug-In . SVG Version: 6.00 Build 0)  -->
<!DOCTYPE svg PUBLIC "-//W3C//DTD SVG 1.1//EN" "http://www.w3.org/Graphics/SVG/1.1/DTD/svg11.dtd">
<svg version="1.1" id="Layer_1" xmlns="http://www.w3.org/2000/svg" xmlns:xlink="http://www.w3.org/1999/xlink" x="0px" y="0px"
	 width="47px" height="47px" viewBox="0 0 47 47" enable-background="new 0 0 47 47" xml:space="preserve">
<g>
	<path fill="#6CC644" d="M23.503,46C11.097,46,1,35.908,1,23.496C1,11.085,11.097,1,23.503,1C35.908,1,46,11.085,46,23.496
		C46,35.908,35.908,46,23.503,46z M23.503,3.365c-11.1,0-20.13,9.031-20.13,20.131c0,11.109,9.03,20.135,20.13,20.135
		c11.1,0,20.13-9.025,20.13-20.135C43.633,12.396,34.603,3.365,23.503,3.365z"/>
	<path fill-rule="evenodd" clip-rule="evenodd" fill="#6CC644" d="M19.148,38.525c0-0.439-0.016-1.605-0.024-3.15
		c-5.151,1.119-6.239-2.482-6.239-2.482c-0.841-2.139-2.056-2.709-2.056-2.709c-1.681-1.148,0.128-1.125,0.128-1.125
		c1.858,0.131,2.836,1.908,2.836,1.908c1.652,2.83,4.334,2.012,5.389,1.539c0.169-1.195,0.647-2.014,1.178-2.477
		c-4.113-0.467-8.436-2.055-8.436-9.151c0-2.023,0.722-3.675,1.905-4.97c-0.19-0.469-0.826-2.352,0.182-4.9
		c0,0,1.554-0.5,5.092,1.898c1.478-0.41,3.062-0.617,4.637-0.623c1.573,0.006,3.156,0.213,4.636,0.623
		c3.536-2.398,5.088-1.898,5.088-1.898c1.01,2.549,0.375,4.432,0.184,4.9c1.187,1.294,1.903,2.947,1.903,4.97
		c0,7.114-4.329,8.678-8.454,9.135c0.664,0.574,1.256,1.703,1.256,3.432c0,2.477-0.021,4.473-0.021,5.08H19.148z"/>
</g>
</svg>
