<?xml version="1.0" encoding="utf-8"?>
<!-- Generator: Adobe Illustrator 16.0.4, SVG Export Plug-In . SVG Version: 6.00 Build 0)  -->
<!DOCTYPE svg PUBLIC "-//W3C//DTD SVG 1.1//EN" "http://www.w3.org/Graphics/SVG/1.1/DTD/svg11.dtd">
<svg version="1.1" id="Layer_1" xmlns="http://www.w3.org/2000/svg" xmlns:xlink="http://www.w3.org/1999/xlink" x="0px" y="0px"
	 width="47px" height="47px" viewBox="0 0 47 47" enable-background="new 0 0 47 47" xml:space="preserve">
<g>
	<path fill="#3B579E" d="M23.503,46C11.097,46,1,35.908,1,23.497C1,11.085,11.097,1,23.503,1C35.908,1,46,11.085,46,23.497
		C46,35.908,35.908,46,23.503,46z M23.503,3.365c-11.1,0-20.13,9.031-20.13,20.132c0,11.107,9.03,20.133,20.13,20.133
		c11.1,0,20.13-9.025,20.13-20.133C43.633,12.396,34.603,3.365,23.503,3.365z"/>
	<g>
		<path fill="#3B579E" d="M27.295,15.952c-1.699,0-1.896,1.028-1.896,2.094v1.621h4.109l-0.396,5.018h-3.713v10.987h-5.021V24.685
			h-2.884v-5.018h2.884v-3.674c0-3.004,1.7-4.664,5.021-4.664h4.109v4.624H27.295z"/>
	</g>
</g>
</svg>
