<?xml version="1.0" encoding="utf-8"?>
<!-- Generator: Adobe Illustrator 16.0.4, SVG Export Plug-In . SVG Version: 6.00 Build 0)  -->
<!DOCTYPE svg PUBLIC "-//W3C//DTD SVG 1.1//EN" "http://www.w3.org/Graphics/SVG/1.1/DTD/svg11.dtd">
<svg version="1.1" id="Layer_1" xmlns="http://www.w3.org/2000/svg" xmlns:xlink="http://www.w3.org/1999/xlink" x="0px" y="0px"
	 width="47px" height="47px" viewBox="0 0 47 47" enable-background="new 0 0 47 47" xml:space="preserve">
<g>
	<path fill="#AFCDD4" d="M23.5,46C11.094,46,1,35.906,1,23.5S11.094,1,23.5,1S46,11.094,46,23.5S35.906,46,23.5,46z M23.5,3.368
		c-11.101,0-20.132,9.031-20.132,20.132S12.399,43.632,23.5,43.632S43.631,34.601,43.631,23.5S34.601,3.368,23.5,3.368z"/>
	<path fill-rule="evenodd" clip-rule="evenodd" fill="#AFCDD4" d="M35.488,17.409l1.084-2.696l-2.265,0.834
		c-1.015-1.268-2.728-2.724-5.3-2.705c-3.625,0.026-6.561,2.902-6.561,6.481c0,0.72,0.123,1.409,0.342,2.057l-6.79,2.295
		l-8.767-4.81L8.137,22.9l3.775,2.154l-1.923,0.65C9.992,25.724,9.997,25.74,10,25.759L7.158,26.73l3.707,2.048l0.023-0.008
		C12.945,33.602,17.762,37,23.4,37C30.911,37,37,30.986,37,23.566C37,21.346,36.453,19.254,35.488,17.409z M30.434,18.074
		c-0.589,0-1.065-0.477-1.065-1.065s0.477-1.065,1.065-1.065c0.59,0,1.066,0.477,1.066,1.065S31.023,18.074,30.434,18.074z"/>
</g>
</svg>
