<?xml version="1.0" encoding="utf-8"?>
<!-- Generator: Adobe Illustrator 16.0.4, SVG Export Plug-In . SVG Version: 6.00 Build 0)  -->
<!DOCTYPE svg PUBLIC "-//W3C//DTD SVG 1.1//EN" "http://www.w3.org/Graphics/SVG/1.1/DTD/svg11.dtd">
<svg version="1.1" id="Layer_1" xmlns="http://www.w3.org/2000/svg" xmlns:xlink="http://www.w3.org/1999/xlink" x="0px" y="0px"
	 width="50px" height="50px" viewBox="0 0 50 50" enable-background="new 0 0 50 50" xml:space="preserve">
<g>
	<path fill="#616364" d="M25.003,49C11.77,49,1,38.234,1,24.996C1,11.757,11.77,1,25.003,1S49,11.757,49,24.996
		C49,38.234,38.236,49,25.003,49z M25.003,3.521c-11.84,0-21.472,9.634-21.472,21.475c0,11.849,9.632,21.475,21.472,21.475
		s21.472-9.626,21.472-21.475C46.475,13.155,36.843,3.521,25.003,3.521z"/>
	<g>
		<path fill="#616364" d="M29.047,16.949c-1.812,0-2.022,1.097-2.022,2.232v1.729h4.384l-0.422,5.354h-3.962v11.72h-5.355v-11.72
			h-3.077V20.91h3.077v-3.919c0-3.205,1.813-4.975,5.355-4.975h4.384v4.933H29.047z"/>
	</g>
</g>
</svg>
