<?xml version="1.0" encoding="utf-8"?>
<!-- Generator: Adobe Illustrator 16.0.4, SVG Export Plug-In . SVG Version: 6.00 Build 0)  -->
<!DOCTYPE svg PUBLIC "-//W3C//DTD SVG 1.1//EN" "http://www.w3.org/Graphics/SVG/1.1/DTD/svg11.dtd">
<svg version="1.1" id="Layer_1" xmlns="http://www.w3.org/2000/svg" xmlns:xlink="http://www.w3.org/1999/xlink" x="0px" y="0px"
	 width="75px" height="75px" viewBox="0 0 75 75" enable-background="new 0 0 75 75" xml:space="preserve">
<g>
	<path fill="#3B579E" d="M37.504,74C17.379,74,1,57.628,1,37.493C1,17.359,17.379,1,37.504,1S74,17.359,74,37.493
		C74,57.628,57.629,74,37.504,74z M37.504,4.835c-18.007,0-32.655,14.65-32.655,32.658c0,18.021,14.648,32.659,32.655,32.659
		c18.006,0,32.655-14.639,32.655-32.659C70.159,19.485,55.51,4.835,37.504,4.835z"/>
	<g>
		<path fill="#3B579E" d="M43.656,25.256c-2.758,0-3.078,1.668-3.078,3.396v2.629h6.666l-0.641,8.142h-6.025v17.824h-8.145V39.422
			h-4.679V31.28h4.679v-5.96c0-4.875,2.759-7.566,8.145-7.566h6.666v7.502H43.656z"/>
	</g>
</g>
</svg>
