<?xml version="1.0" encoding="utf-8"?>
<!-- Generator: Adobe Illustrator 16.0.4, SVG Export Plug-In . SVG Version: 6.00 Build 0)  -->
<!DOCTYPE svg PUBLIC "-//W3C//DTD SVG 1.1//EN" "http://www.w3.org/Graphics/SVG/1.1/DTD/svg11.dtd">
<svg version="1.1" id="Layer_1" xmlns="http://www.w3.org/2000/svg" xmlns:xlink="http://www.w3.org/1999/xlink" x="0px" y="0px"
	 width="75px" height="75px" viewBox="0 0 75 75" enable-background="new 0 0 75 75" xml:space="preserve">
<g>
	<path fill="#35465F" d="M37.504,74C17.379,74,1,57.627,1,37.492C1,17.359,17.379,1,37.504,1S74,17.359,74,37.492
		C74,57.627,57.629,74,37.504,74z M37.504,4.835c-18.007,0-32.656,14.65-32.656,32.657c0,18.021,14.649,32.66,32.656,32.66
		c18.006,0,32.655-14.641,32.655-32.66C70.159,19.485,55.51,4.835,37.504,4.835z"/>
	<path fill="#35465F" d="M47.037,49.406c-0.74,0.354-2.158,0.662-3.217,0.688c-3.191,0.086-3.809-2.238-3.838-3.93V33.757h8.006
		v-6.034h-7.975V17.569c0,0-5.744,0-5.84,0c-0.097,0-0.264,0.084-0.287,0.297c-0.342,3.109-1.796,8.562-7.843,10.742v5.148h4.033
		v13.025c0,4.458,3.291,10.792,11.973,10.644c2.931-0.05,6.185-1.276,6.902-2.334L47.037,49.406z"/>
</g>
</svg>
