<?xml version="1.0" encoding="utf-8"?>
<!-- Generator: Adobe Illustrator 16.0.4, SVG Export Plug-In . SVG Version: 6.00 Build 0)  -->
<!DOCTYPE svg PUBLIC "-//W3C//DTD SVG 1.1//EN" "http://www.w3.org/Graphics/SVG/1.1/DTD/svg11.dtd">
<svg version="1.1" id="Layer_1" xmlns="http://www.w3.org/2000/svg" xmlns:xlink="http://www.w3.org/1999/xlink" x="0px" y="0px"
	 width="50px" height="50px" viewBox="0 0 50 50" enable-background="new 0 0 50 50" xml:space="preserve">
<g>
	<path fill="#35465F" d="M25.002,49C11.77,49,1,38.234,1,24.995C1,11.757,11.77,1,25.002,1C38.236,1,49,11.757,49,24.995
		C49,38.234,38.236,49,25.002,49z M25.002,3.521c-11.84,0-21.473,9.633-21.473,21.474c0,11.851,9.633,21.476,21.473,21.476
		s21.473-9.625,21.473-21.476C46.475,13.154,36.843,3.521,25.002,3.521z"/>
	<path fill="#35465F" d="M31.271,32.829c-0.486,0.231-1.418,0.435-2.114,0.453c-2.099,0.056-2.505-1.474-2.523-2.584v-8.159h5.265
		v-3.968h-5.244v-6.676c0,0-3.775,0-3.839,0s-0.173,0.056-0.189,0.196c-0.225,2.045-1.18,5.63-5.157,7.062v3.386h2.652v8.564
		c0,2.932,2.164,7.096,7.873,6.998c1.926-0.033,4.066-0.84,4.539-1.535L31.271,32.829z"/>
</g>
</svg>
