<?xml version="1.0" encoding="utf-8"?>
<!-- Generator: Adobe Illustrator 16.0.4, SVG Export Plug-In . SVG Version: 6.00 Build 0)  -->
<!DOCTYPE svg PUBLIC "-//W3C//DTD SVG 1.1//EN" "http://www.w3.org/Graphics/SVG/1.1/DTD/svg11.dtd">
<svg version="1.1" id="Layer_1" xmlns="http://www.w3.org/2000/svg" xmlns:xlink="http://www.w3.org/1999/xlink" x="0px" y="0px"
	 width="50px" height="50px" viewBox="0 0 50 50" enable-background="new 0 0 50 50" xml:space="preserve">
<g>
	<path fill="#AECDD3" d="M25.003,49C11.77,49,1,38.234,1,24.996C1,11.757,11.77,1,25.003,1S49,11.757,49,24.996
		C49,38.234,38.236,49,25.003,49z M25.003,3.521c-11.84,0-21.472,9.634-21.472,21.475c0,11.849,9.632,21.475,21.472,21.475
		s21.472-9.626,21.472-21.475C46.475,13.155,36.843,3.521,25.003,3.521z"/>
	<path fill-rule="evenodd" clip-rule="evenodd" fill="#AECDD3" d="M37.789,18.505l1.156-2.878l-2.418,0.885
		c-1.083-1.348-2.91-2.902-5.651-2.886c-3.868,0.034-6.997,3.101-6.997,6.913c0,0.776,0.127,1.504,0.363,2.199l-7.243,2.447
		l-9.351-5.135l0.962,4.308l4.031,2.299l-2.051,0.695c0.005,0.016,0.009,0.033,0.009,0.05l-3.03,1.042l3.951,2.183l0.025-0.008
		c2.195,5.159,7.334,8.781,13.349,8.781c8.013,0,14.507-6.417,14.507-14.33C39.401,22.696,38.817,20.473,37.789,18.505z
		 M32.395,19.208c-0.625,0-1.134-0.505-1.134-1.134c0-0.636,0.509-1.133,1.134-1.133c0.633,0,1.141,0.497,1.141,1.133
		C33.535,18.703,33.027,19.208,32.395,19.208z"/>
</g>
</svg>
