<?xml version="1.0" encoding="utf-8"?>
<!-- Generator: Adobe Illustrator 16.0.4, SVG Export Plug-In . SVG Version: 6.00 Build 0)  -->
<!DOCTYPE svg PUBLIC "-//W3C//DTD SVG 1.1//EN" "http://www.w3.org/Graphics/SVG/1.1/DTD/svg11.dtd">
<svg version="1.1" id="Layer_1" xmlns="http://www.w3.org/2000/svg" xmlns:xlink="http://www.w3.org/1999/xlink" x="0px" y="0px"
	 width="75px" height="75px" viewBox="0 0 75 75" enable-background="new 0 0 75 75" xml:space="preserve">
<g>
	<path fill="#AECDD3" d="M37.504,74C17.379,74,1,57.628,1,37.493C1,17.359,17.379,1,37.504,1S74,17.359,74,37.493
		C74,57.628,57.629,74,37.504,74z M37.504,4.835c-18.007,0-32.655,14.65-32.655,32.658c0,18.021,14.648,32.659,32.655,32.659
		c18.006,0,32.655-14.639,32.655-32.659C70.159,19.485,55.51,4.835,37.504,4.835z"/>
	<path fill="#AECDD3" d="M56.949,27.622l1.761-4.377l-3.679,1.347c-1.646-2.05-4.426-4.415-8.594-4.391
		c-5.885,0.052-10.645,4.716-10.645,10.514c0,1.182,0.194,2.289,0.553,3.345l-11.015,3.723L11.11,29.974l1.464,6.551l6.13,3.499
		l-3.117,1.056c0.006,0.022,0.013,0.051,0.013,0.075l-4.609,1.585l6.011,3.319l0.038-0.014C20.377,53.893,28.192,59.4,37.34,59.4
		c12.186,0,22.062-9.76,22.062-21.794C59.402,33.996,58.514,30.614,56.949,27.622z M48.744,28.691c-0.947,0-1.723-0.769-1.723-1.724
		c0-0.968,0.774-1.723,1.723-1.723c0.963,0,1.736,0.755,1.736,1.723C50.48,27.923,49.707,28.691,48.744,28.691z"/>
</g>
</svg>
