<?xml version="1.0" encoding="utf-8"?>
<!-- Generator: Adobe Illustrator 16.0.4, SVG Export Plug-In . SVG Version: 6.00 Build 0)  -->
<!DOCTYPE svg PUBLIC "-//W3C//DTD SVG 1.1//EN" "http://www.w3.org/Graphics/SVG/1.1/DTD/svg11.dtd">
<svg version="1.1" id="Layer_1" xmlns="http://www.w3.org/2000/svg" xmlns:xlink="http://www.w3.org/1999/xlink" x="0px" y="0px"
	 width="126px" height="126px" viewBox="0 0 126 126" enable-background="new 0 0 126 126" xml:space="preserve">
<g>
	<path fill="#262729" d="M63.001,126C28.262,126,0,97.736,0,62.999S28.262,0,63.001,0C97.738,0,126,28.262,126,62.999
		S97.738,126,63.001,126z M63.001,6.631c-31.081,0-56.37,25.287-56.37,56.368c0,31.082,25.289,56.368,56.37,56.368
		c31.079,0,56.368-25.286,56.368-56.368C119.369,31.918,94.08,6.631,63.001,6.631z"/>
	<g>
		<path fill="#FB500B" d="M74.146,29.269l-5.534-2.295l-0.848,2.043l5.556,2.303C73.516,30.595,73.797,29.914,74.146,29.269z"/>
		<path fill="#FB500B" d="M79.849,24.67l-2.267-5.471l-2.041,0.846l2.271,5.486C78.449,25.167,79.131,24.88,79.849,24.67z"/>
		<path fill="#FB500B" d="M91.704,31.296l5.497-2.279l-0.846-2.043l-5.483,2.273C91.226,29.889,91.506,30.571,91.704,31.296z"/>
		<path fill="#FB500B" d="M87.165,25.5l2.261-5.455l-2.043-0.846l-2.257,5.453C85.844,24.856,86.523,25.144,87.165,25.5z"/>
	</g>
	<path fill="#262729" d="M63.347,108.868h-0.77c-14.884,0-26.991-12.133-26.991-27.047V67.338l3.937,4.936
		c0.987,1.234,2.429,1.943,3.958,1.943c1.915,0,3.652-1.082,4.529-2.82l1.969-3.892l1.976,3.888c0.886,1.742,2.62,2.824,4.531,2.824
		c1.327,0,2.593-0.536,3.562-1.51c1.132-1.073,1.565-2.199,1.542-3.94c-0.006-0.461-0.01-0.828-0.002-1.134V47.559h13.006V33.872
		c0-4.356,3.544-7.898,7.9-7.898c4.353,0,7.895,3.542,7.895,7.898v47.949C90.389,96.735,78.257,108.868,63.347,108.868z
		 M40.005,77.971v3.851c0,12.476,10.128,22.625,22.572,22.625h0.77c12.476,0,22.623-10.149,22.623-22.625V33.872
		c0-1.917-1.561-3.478-3.476-3.478c-1.919,0-3.481,1.561-3.481,3.478v42.303l-6.048-4.205v-19.99H66.01l-0.008,15.669
		c0,0.146,0.002,0.459,0.01,1.063c0.039,2.994-0.875,5.27-2.879,7.163c-1.757,1.762-4.135,2.763-6.647,2.763
		c-2.463,0-4.767-0.947-6.499-2.592C47.405,78.495,43.335,79.299,40.005,77.971z"/>
	<path fill="#FFFFFF" d="M85.517,93.019"/>
	<g>
		<path fill="#FFFFFF" d="M37.795,57.896v5.688v5.689v2.438c0,3.141,2.544,5.688,5.686,5.688c3.144,0,5.691-2.547,5.691-5.688
			v-2.438v-5.689v-5.688H37.795z"/>
		<path fill="#262729" d="M43.48,79.611c-4.353,0-7.895-3.542-7.895-7.899V55.685h15.795v16.027
			C51.381,76.069,47.837,79.611,43.48,79.611z M40.005,60.106v11.605c0,1.918,1.561,3.478,3.476,3.478
			c1.919,0,3.481-1.56,3.481-3.478V60.106H40.005z"/>
	</g>
	<g>
		<path fill="#FFFFFF" d="M50.795,53.832v6.502v5.688v5.69c0,3.141,2.547,5.688,5.69,5.688c3.143,0,5.689-2.547,5.689-5.688v-5.69
			v-5.688v-6.502H50.795z"/>
		<path fill="#262729" d="M56.485,79.611c-4.356,0-7.9-3.542-7.9-7.899V51.621h15.802v20.091
			C64.387,76.069,60.842,79.611,56.485,79.611z M53.006,56.042v15.67c0,1.918,1.561,3.478,3.479,3.478
			c1.92,0,3.479-1.56,3.479-3.478v-15.67H53.006z"/>
	</g>
	<path fill="#FFFFFF" d="M83.448,74.882l-9.371-6.537H58.381c0.423,4.436,3.932,7.711,8.037,7.711l2.061-0.021l11.102,8.519"/>
	<path fill="#262729" d="M75.653,84.681c-5.229-3.812-7.542-5.499-8.588-6.269c-0.208,0.008-0.416,0.004-0.638,0.004h-0.229
		c-5.429,0-10.013-4.908-10.013-10.719v-2.212h17.736l2.779,2.061l12.85,8.979l-2.535,3.623l-14.554-10.24H60.991
		c0.83,2.341,2.909,4.09,5.207,4.09h0.251c0.321,0.006,0.651,0.01,0.963-0.032l0.886-0.121l0.724,0.529
		c0.159,0.118,9.233,6.735,9.233,6.735L75.653,84.681z"/>
</g>
</svg>
