<?xml version="1.0" encoding="utf-8"?>
<!-- Generator: Adobe Illustrator 16.0.4, SVG Export Plug-In . SVG Version: 6.00 Build 0)  -->
<!DOCTYPE svg PUBLIC "-//W3C//DTD SVG 1.1//EN" "http://www.w3.org/Graphics/SVG/1.1/DTD/svg11.dtd">
<svg version="1.1" id="Layer_1" xmlns="http://www.w3.org/2000/svg" xmlns:xlink="http://www.w3.org/1999/xlink" x="0px" y="0px"
	 width="126px" height="126px" viewBox="0 0 126 126" enable-background="new 0 0 126 126" xml:space="preserve">
<g>
	<path fill="#262729" d="M62.999,126C28.261,126,0,97.738,0,63.001C0,28.262,28.261,0,62.999,0C97.736,0,126,28.262,126,63.001
		C126,97.738,97.736,126,62.999,126z M62.999,6.631c-31.082,0-56.368,25.288-56.368,56.37c0,31.079,25.286,56.368,56.368,56.368
		c31.081,0,56.368-25.289,56.368-56.368C119.367,31.919,94.08,6.631,62.999,6.631z"/>
	<rect x="64" y="40" fill="#262729" width="35" height="4"/>
	<rect x="29" y="56" fill="#262729" width="70" height="4"/>
	<rect x="29" y="72" fill="#262729" width="70" height="4"/>
	<rect x="29" y="88" fill="#262729" width="70" height="4"/>
	<g>
		<path fill="#FB500B" d="M29.99,43.885c1.009,0.928,2.2,1.672,3.633,1.672c1.723,0,2.837-0.902,2.837-2.626
			c0-1.697-1.089-2.596-2.651-2.596c-0.983,0-1.486,0.21-2.495,0.846l-1.75-1.113l0.481-8.511h9.543v3.287h-6.176l-0.294,3.157
			c0.636-0.292,1.193-0.398,1.882-0.398c2.891,0,5.355,1.643,5.355,5.223c0,3.738-2.891,5.885-6.176,5.885
			c-2.759,0-4.616-1.034-5.94-2.36L29.99,43.885z"/>
		<path fill="#FB500B" d="M42.418,39.908c0-5.726,2.414-8.67,6.019-8.67s6.017,2.944,6.017,8.67c0,5.727-2.412,8.802-6.017,8.802
			S42.418,45.635,42.418,39.908z M50.771,39.908c0-4.613-1.009-5.647-2.333-5.647c-1.301,0-2.332,1.034-2.332,5.647
			c0,4.587,1.03,5.78,2.332,5.78C49.762,45.688,50.771,44.495,50.771,39.908z"/>
		<path fill="#FB500B" d="M55.814,34.023c0-2.228,1.697-3.819,3.817-3.819c2.151,0,3.847,1.592,3.847,3.819
			c0,2.226-1.696,3.816-3.847,3.816C57.512,37.84,55.814,36.249,55.814,34.023z M61.412,34.023c0-1.143-0.718-1.936-1.78-1.936
			c-1.032,0-1.774,0.793-1.774,1.936c0,1.165,0.742,1.96,1.774,1.96C60.693,35.983,61.412,35.188,61.412,34.023z"/>
	</g>
</g>
</svg>
