<?xml version="1.0" encoding="utf-8"?>
<!-- Generator: Adobe Illustrator 16.0.4, SVG Export Plug-In . SVG Version: 6.00 Build 0)  -->
<!DOCTYPE svg PUBLIC "-//W3C//DTD SVG 1.1//EN" "http://www.w3.org/Graphics/SVG/1.1/DTD/svg11.dtd">
<svg version="1.1" id="Layer_1" xmlns="http://www.w3.org/2000/svg" xmlns:xlink="http://www.w3.org/1999/xlink" x="0px" y="0px"
	 width="125px" height="45px" viewBox="0 0 125 45" enable-background="new 0 0 125 45" xml:space="preserve">
<g id="Normal_Desktop_8_">
	<g>
		<rect x="27.553" y="15.84" fill="none" width="69.895" height="15.236"/>
		<path fill="#262729" d="M41.45,23.95v-4.038c0-2.412,0.819-4.323,3.536-4.323c2.527,0,3.422,1.714,3.422,4.065v1.05h-2.426v-1.125
			c0-0.908-0.061-2.087-0.996-2.087c-0.928,0-1.07,1.05-1.07,1.802v5.265c0,0.758,0.136,1.795,1.07,1.795
			c0.901,0,1.017-1.145,1.01-2.094v-1.254h2.412l-0.007,1.031c-0.034,2.194-0.766,4.221-3.415,4.221
			C42.276,28.26,41.45,26.301,41.45,23.95z"/>
		<path fill="#262729" d="M48.895,28.021l2.636-12.194h2.181l2.629,12.194h-2.432l-0.502-2.607h-1.592l-0.475,2.607H48.895z
			 M51.983,23.896h1.261l-0.617-4.526L51.983,23.896z"/>
		<path fill="#262729" d="M57.179,28.021V15.82h1.775l2.676,6.382V15.82h2.046v12.201h-1.707L59.3,21.254v6.768H57.179z"/>
		<path fill="#262729" d="M64.962,23.95v-4.038c0-2.412,0.819-4.323,3.536-4.323c2.527,0,3.422,1.714,3.422,4.065v1.05h-2.426
			v-1.125c0-0.908-0.061-2.087-0.996-2.087c-0.928,0-1.07,1.05-1.07,1.802v5.265c0,0.758,0.136,1.795,1.07,1.795
			c0.901,0,1.017-1.145,1.01-2.094v-1.254h2.412l-0.007,1.031c-0.034,2.194-0.766,4.221-3.415,4.221
			C65.788,28.26,64.962,26.301,64.962,23.95z"/>
		<path fill="#262729" d="M73.062,28.021V15.827h5.088v1.694h-2.621v3.319h1.855v1.734h-1.855v3.753h2.621v1.693H73.062z"/>
		<path fill="#262729" d="M79.079,28.021V15.827h2.467v10.501h2.425v1.693H79.079z"/>
	</g>
	<g>
		<path fill="#262729" d="M121,4v37H4V4H121 M125,0H0v45h125V0L125,0z"/>
	</g>
</g>
</svg>
