<?xml version="1.0" encoding="utf-8"?>
<!-- Generator: Adobe Illustrator 16.0.4, SVG Export Plug-In . SVG Version: 6.00 Build 0)  -->
<!DOCTYPE svg PUBLIC "-//W3C//DTD SVG 1.1//EN" "http://www.w3.org/Graphics/SVG/1.1/DTD/svg11.dtd">
<svg version="1.1" id="Layer_1" xmlns="http://www.w3.org/2000/svg" xmlns:xlink="http://www.w3.org/1999/xlink" x="0px" y="0px"
	 width="126px" height="126px" viewBox="0 0 126 126" enable-background="new 0 0 126 126" xml:space="preserve">
<g>
	<g>
		<g>
			<polygon fill="#262729" points="31.184,43.938 21.656,43.938 40.717,62.997 21.656,82.059 31.184,82.059 50.245,62.997 			"/>
			<polygon fill="#FB500B" points="43.496,43.938 33.967,43.938 53.025,62.997 33.967,82.059 43.496,82.059 62.556,62.997 			"/>
		</g>
		<g>
			<polygon fill="#262729" points="94.812,43.938 104.342,43.938 85.281,62.997 104.342,82.059 94.812,82.059 75.751,62.997 			"/>
			<polygon fill="#FB500B" points="82.504,43.938 92.031,43.938 72.973,62.997 92.031,82.059 82.504,82.059 63.444,62.997 			"/>
		</g>
	</g>
	<path fill="#262729" d="M62.999,126C28.262,126,0,97.736,0,62.999S28.262,0,62.999,0S126,28.262,126,62.999S97.736,126,62.999,126z
		 M62.999,6.631c-31.081,0-56.368,25.287-56.368,56.368c0,31.082,25.287,56.368,56.368,56.368s56.368-25.286,56.368-56.368
		C119.367,31.918,94.08,6.631,62.999,6.631z"/>
</g>
</svg>
