<?xml version="1.0" encoding="utf-8"?>
<!-- Generator: Adobe Illustrator 16.0.4, SVG Export Plug-In . SVG Version: 6.00 Build 0)  -->
<!DOCTYPE svg PUBLIC "-//W3C//DTD SVG 1.1//EN" "http://www.w3.org/Graphics/SVG/1.1/DTD/svg11.dtd">
<svg version="1.1" id="Layer_1" xmlns="http://www.w3.org/2000/svg" xmlns:xlink="http://www.w3.org/1999/xlink" x="0px" y="0px"
	 width="178px" height="45px" viewBox="0 0 178 45" enable-background="new 0 0 178 45" xml:space="preserve">
<g id="Hover">
	<g>
		<rect fill="#262729" width="178" height="45"/>
	</g>
	<g>
		<rect x="12.652" y="15.84" fill="none" width="152.895" height="15.236"/>
		<path fill="#FFFFFF" d="M19.959,28.021V15.827h2.548c3.266,0,4.044,1.179,4.044,3.95v3.997c0,2.846-0.562,4.248-4.071,4.248
			H19.959z M22.426,26.294h0.054c1.26,0,1.605-0.075,1.605-1.165v-6.565c0-0.854-0.521-0.996-1.564-1.003h-0.095V26.294z"/>
		<path fill="#FFFFFF" d="M27.682,24.011v-4.099c0-2.419,0.847-4.323,3.563-4.323s3.57,1.904,3.57,4.323v4.037
			c0,2.352-0.867,4.31-3.57,4.31C28.556,28.259,27.682,26.361,27.682,24.011z M32.35,24.566v-5.271c0-0.779-0.163-1.802-1.104-1.802
			c-0.935,0-1.098,1.037-1.098,1.802v5.271c0,0.771,0.156,1.795,1.098,1.795C32.2,26.361,32.35,25.352,32.35,24.566z"/>
		<path fill="#FFFFFF" d="M37.076,28.021L35.39,15.827h2.101l0.759,8.076l1.043-8.076h1.809l1.023,8.029l0.793-8.029h2.106
			l-1.707,12.195h-2.107l-1.022-7.981l-1.003,7.981H37.076z"/>
		<path fill="#FFFFFF" d="M45.954,28.021V15.82h1.775l2.676,6.382V15.82h2.046v12.202h-1.707l-2.669-6.768v6.768H45.954z"/>
		<path fill="#FFFFFF" d="M53.893,28.021V15.827h2.467v10.501h2.425v1.693H53.893z"/>
		<path fill="#FFFFFF" d="M59.232,24.011v-4.099c0-2.419,0.847-4.323,3.563-4.323s3.57,1.904,3.57,4.323v4.037
			c0,2.352-0.867,4.31-3.57,4.31C60.106,28.259,59.232,26.361,59.232,24.011z M63.9,24.566v-5.271c0-0.779-0.163-1.802-1.104-1.802
			c-0.935,0-1.098,1.037-1.098,1.802v5.271c0,0.771,0.156,1.795,1.098,1.795C63.751,26.361,63.9,25.352,63.9,24.566z"/>
		<path fill="#FFFFFF" d="M66.894,28.021l2.636-12.195h2.181l2.629,12.195h-2.432l-0.502-2.608h-1.592l-0.475,2.608H66.894z
			 M69.982,23.896h1.261l-0.617-4.525L69.982,23.896z"/>
		<path fill="#FFFFFF" d="M75.178,28.021V15.827h2.548c3.266,0,4.044,1.179,4.044,3.95v3.997c0,2.846-0.562,4.248-4.071,4.248
			H75.178z M77.645,26.294h0.054c1.26,0,1.605-0.075,1.605-1.165v-6.565c0-0.854-0.521-0.996-1.564-1.003h-0.095V26.294z"/>
		<path fill="#FFFFFF" d="M84.938,28.021V15.827h2.684c2.357,0,3.889,0.84,3.889,3.211c0,1.07-0.149,2.439-1.66,3.089
			c0.609,1.937,1.227,3.869,1.91,5.894h-2.554l-1.396-5.616h-0.406v5.616H84.938z M87.404,20.901h0.704
			c0.819,0,0.948-1.212,0.948-1.667c0-0.447-0.095-1.599-0.833-1.599h-0.819V20.901z"/>
		<path fill="#FFFFFF" d="M92.612,28.021V15.827H97.7v1.694h-2.621v3.32h1.855v1.734h-1.855v3.753H97.7v1.693H92.612z"/>
		<path fill="#FFFFFF" d="M98.629,28.021V15.827h2.947c2.195,0,3.042,1.301,3.042,3.455c0,2.792-1.328,3.51-3.51,3.523h-0.013v5.217
			H98.629z M101.096,21.063h0.102c1.077,0,1.084-0.589,1.084-1.829c0-0.962-0.007-1.653-1.051-1.653h-0.135V21.063z"/>
		<path fill="#FFFFFF" d="M105.444,24.011v-4.099c0-2.419,0.847-4.323,3.563-4.323s3.57,1.904,3.57,4.323v4.037
			c0,2.352-0.867,4.31-3.57,4.31C106.318,28.259,105.444,26.361,105.444,24.011z M110.112,24.566v-5.271
			c0-0.779-0.163-1.802-1.104-1.802c-0.936,0-1.098,1.037-1.098,1.802v5.271c0,0.771,0.156,1.795,1.098,1.795
			C109.963,26.361,110.112,25.352,110.112,24.566z"/>
		<path fill="#FFFFFF" d="M113.863,28.021V15.827h2.684c2.357,0,3.889,0.84,3.889,3.211c0,1.07-0.149,2.439-1.66,3.089
			c0.609,1.937,1.227,3.869,1.91,5.894h-2.554l-1.396-5.616h-0.406v5.616H113.863z M116.33,20.901h0.704
			c0.819,0,0.948-1.212,0.948-1.667c0-0.447-0.095-1.599-0.833-1.599h-0.819V20.901z"/>
		<path fill="#FFFFFF" d="M122.54,28.021V17.669h-1.788v-1.843h6.01v1.843h-1.755v10.352H122.54z"/>
		<path fill="#FFFFFF" d="M133.067,26.951v1.504c-3.36,0.021-3.259-4.281-3.259-6.673c0-2.398-0.102-6.693,3.259-6.68v1.504
			c-1.626-0.027-1.314,4.241-1.314,5.176C131.753,22.71,131.441,26.979,133.067,26.951z"/>
		<path fill="#FFFFFF" d="M134.187,28.021V15.827h2.947c2.195,0,3.042,1.301,3.042,3.455c0,2.792-1.328,3.51-3.51,3.523h-0.013
			v5.217H134.187z M136.653,21.063h0.102c1.077,0,1.084-0.589,1.084-1.829c0-0.962-0.007-1.653-1.051-1.653h-0.135V21.063z"/>
		<path fill="#FFFFFF" d="M141.157,28.021V15.827h2.548c3.266,0,4.045,1.179,4.045,3.95v3.997c0,2.846-0.562,4.248-4.072,4.248
			H141.157z M143.624,26.294h0.054c1.26,0,1.605-0.075,1.605-1.165v-6.565c0-0.854-0.521-0.996-1.564-1.003h-0.095V26.294z"/>
		<path fill="#FFFFFF" d="M149.035,28.021V15.827h5.088v1.694h-2.621v3.32h1.855v1.734h-1.855v5.447H149.035z"/>
		<path fill="#FFFFFF" d="M155.004,28.455v-1.504c1.619,0.027,1.314-4.248,1.314-5.169c0-0.928,0.305-5.203-1.314-5.176v-1.504
			c3.354-0.013,3.266,4.289,3.266,6.68C158.27,24.166,158.357,28.476,155.004,28.455z"/>
	</g>
</g>
<g>
</g>
<g>
</g>
<g>
</g>
<g>
</g>
<g>
</g>
<g>
</g>
<g>
</g>
<g>
</g>
<g>
</g>
<g>
</g>
<g>
</g>
<g>
</g>
<g>
</g>
<g>
</g>
<g>
</g>
</svg>
