<?xml version="1.0" encoding="utf-8"?>
<!-- Generator: Adobe Illustrator 16.0.4, SVG Export Plug-In . SVG Version: 6.00 Build 0)  -->
<!DOCTYPE svg PUBLIC "-//W3C//DTD SVG 1.1//EN" "http://www.w3.org/Graphics/SVG/1.1/DTD/svg11.dtd">
<svg version="1.1" id="Layer_1" xmlns="http://www.w3.org/2000/svg" xmlns:xlink="http://www.w3.org/1999/xlink" x="0px" y="0px"
	 width="20px" height="20px" viewBox="0 0 20 20" enable-background="new 0 0 20 20" xml:space="preserve">
<g>
	<path fill="#FB500B" d="M10,20C4.486,20,0,15.515,0,10S4.486,0,10,0s10,4.485,10,10S15.514,20,10,20z M10,1.053
		c-4.934,0-8.947,4.014-8.947,8.947S5.066,18.947,10,18.947s8.947-4.014,8.947-8.947S14.934,1.053,10,1.053z"/>
	<g>
		<polygon fill="#FB500B" points="15.217,5.965 4.8,5.965 10.008,11.173 		"/>
		<polygon fill="#FB500B" points="10.008,12.913 4.736,7.536 4.736,14.387 15.264,14.387 15.264,7.553 		"/>
	</g>
</g>
</svg>
