<?xml version="1.0" encoding="utf-8"?>
<!-- Generator: Adobe Illustrator 16.0.4, SVG Export Plug-In . SVG Version: 6.00 Build 0)  -->
<!DOCTYPE svg PUBLIC "-//W3C//DTD SVG 1.1//EN" "http://www.w3.org/Graphics/SVG/1.1/DTD/svg11.dtd">
<svg version="1.1" id="Layer_1" xmlns="http://www.w3.org/2000/svg" xmlns:xlink="http://www.w3.org/1999/xlink" x="0px" y="0px"
	 width="126px" height="126px" viewBox="0 0 126 126" enable-background="new 0 0 126 126" xml:space="preserve">
<g>
	<path fill="#262729" d="M63.001,126C28.261,126,0,97.736,0,62.999S28.261,0,63.001,0C97.738,0,126,28.262,126,62.999
		S97.738,126,63.001,126z M63.001,6.631c-31.082,0-56.37,25.287-56.37,56.368c0,31.082,25.288,56.368,56.37,56.368
		c31.079,0,56.368-25.286,56.368-56.368C119.369,31.918,94.08,6.631,63.001,6.631z"/>
	<polygon fill="#262729" points="24.77,84.729 22.331,80.916 51.603,51.646 77.38,65.122 101.045,41.455 103.482,45.271 
		78.208,70.545 52.431,57.07 	"/>
	<g>
		<circle fill="#FB500B" cx="76.808" cy="65.721" r="6.96"/>
		<path fill="#FFFFFF" d="M76.807,74.892c-5.055,0-9.17-4.113-9.17-9.171c0-5.055,4.115-9.168,9.17-9.168
			c5.056,0,9.171,4.113,9.171,9.168C85.978,70.778,81.862,74.892,76.807,74.892z M76.807,60.972c-2.617,0-4.749,2.131-4.749,4.749
			c0,2.62,2.132,4.749,4.749,4.749c2.62,0,4.75-2.129,4.75-4.749C81.557,63.103,79.427,60.972,76.807,60.972z"/>
	</g>
	<path fill="#FB500B" d="M76.807,78.978c-7.309,0-13.254-5.946-13.254-13.257c0-7.308,5.946-13.256,13.254-13.256
		c7.311,0,13.255,5.948,13.255,13.256C90.062,73.031,84.117,78.978,76.807,78.978z M76.807,56.886c-4.869,0-8.833,3.965-8.833,8.835
		c0,4.873,3.964,8.837,8.833,8.837c4.871,0,8.834-3.964,8.834-8.837C85.641,60.851,81.678,56.886,76.807,56.886z"/>
	<path fill="#FFFFFF" d="M76.807,81.236c-8.553,0-15.511-6.959-15.511-15.516c0-8.554,6.958-15.513,15.511-15.513
		c8.557,0,15.518,6.959,15.518,15.513C92.324,74.277,85.363,81.236,76.807,81.236z M76.807,52.417
		c-7.336,0-13.301,5.971-13.301,13.304c0,7.336,5.965,13.306,13.301,13.306c7.338,0,13.308-5.97,13.308-13.306
		C90.114,58.388,84.145,52.417,76.807,52.417z"/>
</g>
</svg>
