<?xml version="1.0" encoding="utf-8"?>
<!-- Generator: Adobe Illustrator 16.0.4, SVG Export Plug-In . SVG Version: 6.00 Build 0)  -->
<!DOCTYPE svg PUBLIC "-//W3C//DTD SVG 1.1//EN" "http://www.w3.org/Graphics/SVG/1.1/DTD/svg11.dtd">
<svg version="1.1" id="Layer_1" xmlns="http://www.w3.org/2000/svg" xmlns:xlink="http://www.w3.org/1999/xlink" x="0px" y="0px"
	 width="41px" height="31px" viewBox="0 0 41 31" enable-background="new 0 0 41 31" xml:space="preserve">
<path fill="#262729" d="M40.415,27.575c-0.867-4.429-12.807-3.958-15.684-7.427c-0.606-0.73-0.606-0.73-0.2-3.449
	c0.694-3.043,1.323-1.154,2.316-7.223C27.683,4.379,25.902,0,20.5,0s-7.182,4.379-6.348,9.476c0.993,6.069,1.622,4.18,2.317,7.223
	c0.407,2.719,0.407,2.719-0.2,3.449c-2.877,3.469-14.817,2.998-15.685,7.427C0.481,28.1,0,31,0,31h41
	C41,31,40.519,28.1,40.415,27.575z"/>
</svg>
