<?xml version="1.0" encoding="utf-8"?>
<!-- Generator: Adobe Illustrator 16.0.4, SVG Export Plug-In . SVG Version: 6.00 Build 0)  -->
<!DOCTYPE svg PUBLIC "-//W3C//DTD SVG 1.1//EN" "http://www.w3.org/Graphics/SVG/1.1/DTD/svg11.dtd">
<svg version="1.1" id="Layer_1" xmlns="http://www.w3.org/2000/svg" xmlns:xlink="http://www.w3.org/1999/xlink" x="0px" y="0px"
	 width="125px" height="45px" viewBox="0 0 125 45" enable-background="new 0 0 125 45" xml:space="preserve">
<g id="Normal_Desktop_9_">
	<g>
		<rect x="27.553" y="15.84" fill="none" width="69.895" height="15.236"/>
		<path fill="#262729" d="M49.185,24.532l2.5-0.481c0,1.07,0.089,2.331,0.942,2.331c0.582,0,0.731-0.42,0.731-0.935
			c0-1.017-0.731-1.924-1.443-2.547l-0.766-0.65c-0.962-0.813-1.958-1.708-1.958-3.462c0-1.999,1.39-3.211,3.442-3.211
			c1.734,0,3.109,1.416,3.109,3.144c0,0.041-0.007,0.095-0.007,0.291l-2.547,0.353c0-0.156,0.02-0.305,0.02-0.495
			c0-0.576-0.129-1.402-0.779-1.402c-0.582,0-0.812,0.556-0.812,1.07c0,0.874,0.461,1.416,1.043,1.904
			c0.312,0.264,0.617,0.515,0.901,0.772c1.253,1.118,2.195,2.263,2.195,4.146c0,1.748-1.437,2.912-3.137,2.912
			C50.282,28.271,49.28,26.443,49.185,24.532z"/>
		<path fill="#262729" d="M56,28.021l2.636-12.195h2.181l2.629,12.195h-2.432l-0.502-2.608H58.92l-0.475,2.608H56z M59.089,23.896
			h1.261l-0.617-4.525L59.089,23.896z"/>
		<path fill="#262729" d="M65.336,28.021l-2.243-12.195h2.338l1.077,7.392l1.192-7.392h2.304l-2.412,12.195H65.336z"/>
		<path fill="#262729" d="M70.91,28.021V15.827h5.088v1.694h-2.621v3.32h1.855v1.734h-1.855v3.753h2.621v1.693H70.91z"/>
	</g>
	<g>
		<path fill="#262729" d="M121,4v37H4V4H121 M125,0H0v45h125V0L125,0z"/>
	</g>
</g>
</svg>
