<?xml version="1.0" encoding="utf-8"?>
<!-- Generator: Adobe Illustrator 16.0.4, SVG Export Plug-In . SVG Version: 6.00 Build 0)  -->
<!DOCTYPE svg PUBLIC "-//W3C//DTD SVG 1.1//EN" "http://www.w3.org/Graphics/SVG/1.1/DTD/svg11.dtd">
<svg version="1.1" id="Layer_1" xmlns="http://www.w3.org/2000/svg" xmlns:xlink="http://www.w3.org/1999/xlink" x="0px" y="0px"
	 width="125px" height="45px" viewBox="0 0 125 45" enable-background="new 0 0 125 45" xml:space="preserve">
<g id="Normal_Desktop_8_">
	<g>
		<path fill="#262729" d="M121,4v37H4V4H121 M125,0H0v45h125V0L125,0z"/>
	</g>
	<g>
		<path fill="#262729" d="M40.522,24.532l2.5-0.481c0,1.071,0.089,2.331,0.942,2.331c0.582,0,0.731-0.42,0.731-0.935
			c0-1.017-0.731-1.924-1.443-2.548l-0.766-0.65c-0.962-0.812-1.958-1.707-1.958-3.462c0-1.999,1.39-3.211,3.442-3.211
			c1.734,0,3.109,1.416,3.109,3.144c0,0.041-0.007,0.095-0.007,0.291l-2.547,0.353c0-0.156,0.02-0.305,0.02-0.495
			c0-0.576-0.129-1.402-0.779-1.402c-0.582,0-0.812,0.555-0.812,1.07c0,0.874,0.461,1.416,1.043,1.904
			c0.312,0.264,0.617,0.515,0.901,0.772c1.253,1.118,2.195,2.263,2.195,4.146c0,1.748-1.437,2.912-3.137,2.912
			C41.62,28.271,40.618,26.443,40.522,24.532z"/>
		<path fill="#262729" d="M48.123,28.021V15.827h5.088v1.694H50.59v3.319h1.855v1.734H50.59v3.754h2.621v1.693H48.123z"/>
		<path fill="#262729" d="M53.537,28.021l2.636-12.195h2.181l2.629,12.195h-2.432l-0.502-2.608h-1.592l-0.475,2.608H53.537z
			 M56.626,23.896h1.261L57.27,19.37L56.626,23.896z"/>
		<path fill="#262729" d="M61.821,28.021V15.827h2.684c2.357,0,3.889,0.84,3.889,3.211c0,1.07-0.149,2.439-1.66,3.089
			c0.609,1.937,1.227,3.869,1.91,5.894H66.09l-1.396-5.616h-0.406v5.616H61.821z M64.288,20.901h0.704
			c0.82,0,0.948-1.212,0.948-1.667c0-0.447-0.095-1.599-0.833-1.599h-0.819V20.901z"/>
		<path fill="#262729" d="M69.334,23.949v-4.037c0-2.412,0.819-4.323,3.536-4.323c2.527,0,3.422,1.714,3.422,4.065v1.05h-2.426
			V19.58c0-0.908-0.062-2.087-0.996-2.087c-0.928,0-1.07,1.05-1.07,1.802v5.264c0,0.759,0.136,1.796,1.07,1.796
			c0.901,0,1.017-1.146,1.01-2.094v-1.254h2.412l-0.007,1.03c-0.034,2.194-0.766,4.221-3.415,4.221
			C70.16,28.259,69.334,26.301,69.334,23.949z"/>
		<path fill="#262729" d="M77.435,28.021V15.827h2.467v5h1.768v-5h2.479v12.195h-2.479v-5.44h-1.768v5.44H77.435z"/>
	</g>
</g>
</svg>
