<?xml version="1.0" encoding="utf-8"?>
<!-- Generator: Adobe Illustrator 16.0.4, SVG Export Plug-In . SVG Version: 6.00 Build 0)  -->
<!DOCTYPE svg PUBLIC "-//W3C//DTD SVG 1.1//EN" "http://www.w3.org/Graphics/SVG/1.1/DTD/svg11.dtd">
<svg version="1.1" id="Layer_1" xmlns="http://www.w3.org/2000/svg" xmlns:xlink="http://www.w3.org/1999/xlink" x="0px" y="0px"
	 width="20px" height="20px" viewBox="0 0 20 20" enable-background="new 0 0 20 20" xml:space="preserve">
<g>
	<path fill="#FB500B" d="M10,20C4.485,20,0,15.515,0,10S4.485,0,10,0s10,4.485,10,10S15.515,20,10,20z M10,1.053
		c-4.934,0-8.947,4.014-8.947,8.947S5.066,18.947,10,18.947s8.947-4.014,8.947-8.947S14.934,1.053,10,1.053z"/>
	<path fill-rule="evenodd" clip-rule="evenodd" fill="#FB500B" d="M15.328,7.293l0.481-1.198l-1.006,0.37
		c-0.451-0.562-1.213-1.211-2.355-1.202c-1.611,0.012-2.916,1.29-2.916,2.88c0,0.32,0.055,0.627,0.152,0.915l-3.019,1.02L2.769,7.94
		l0.403,1.793L4.85,10.69l-0.854,0.289c0.001,0.009,0.004,0.017,0.004,0.024l-1.262,0.432l1.646,0.91l0.011-0.003
		C5.31,14.489,7.449,16,9.956,16c3.338,0,6.045-2.673,6.045-5.971C16.001,9.043,15.757,8.112,15.328,7.293z M13.081,7.589
		c-0.262,0-0.473-0.212-0.473-0.474s0.211-0.474,0.473-0.474c0.263,0,0.475,0.212,0.475,0.474S13.344,7.589,13.081,7.589z"/>
</g>
</svg>
