<?xml version="1.0" encoding="utf-8"?>
<!-- Generator: Adobe Illustrator 16.0.4, SVG Export Plug-In . SVG Version: 6.00 Build 0)  -->
<!DOCTYPE svg PUBLIC "-//W3C//DTD SVG 1.1//EN" "http://www.w3.org/Graphics/SVG/1.1/DTD/svg11.dtd">
<svg version="1.1" id="Layer_1" xmlns="http://www.w3.org/2000/svg" xmlns:xlink="http://www.w3.org/1999/xlink" x="0px" y="0px"
	 width="71px" height="75px" viewBox="0 0 71 75" enable-background="new 0 0 71 75" xml:space="preserve">
<g>
	<g>
		<polygon fill="#AFCDD4" points="26.387,26.254 26.387,30.81 35.501,21.696 44.613,30.81 44.613,26.254 35.501,17.142 		"/>
		<polygon fill="#FF9A33" points="26.387,20.37 26.387,24.924 35.501,15.813 44.613,24.924 44.613,20.37 35.501,11.256 		"/>
		<polygon fill="#FB500B" points="43.076,12.944 43.076,8.98 41.052,8.98 41.052,10.921 35.501,5.372 26.387,14.483 26.387,19.04 
			35.501,9.929 44.613,19.04 44.613,14.483 		"/>
	</g>
	<path fill="#AFCDD4" d="M35.498,38.378c-10.583,0-19.191-8.607-19.191-19.189C16.307,8.608,24.915,0,35.498,0
		c10.584,0,19.196,8.608,19.196,19.189C54.693,29.771,46.082,38.378,35.498,38.378z M35.498,1.958
		c-9.502,0-17.233,7.729-17.233,17.231c0,9.502,7.731,17.232,17.233,17.232c9.504,0,17.238-7.73,17.238-17.232
		C52.735,9.688,45.002,1.958,35.498,1.958z"/>
	<g>
		<g>
			<path fill="#262729" d="M0.259,59.885V42.687h2.619v6.958h2.346v-6.958h2.62v17.198h-2.62v-7.993H2.877v7.993H0.259z"/>
			<path fill="#262729" d="M10.109,59.885V42.687h5.767v2.257h-3.147v5.003h2.991v2.208h-2.991v5.473h3.265v2.257H10.109z"/>
			<path fill="#262729" d="M17.605,59.885l2.454-17.198h3.46l2.61,17.198h-2.444l-0.411-3.068h-2.776l-0.371,3.068H17.605z
				 M23,54.716l-1.153-8.638h-0.04l-1.055,8.638H23z"/>
			<path fill="#262729" d="M28.406,59.885V44.953h-2.013v-2.266h6.558v2.266h-1.936v14.932H28.406z"/>
			<path fill="#262729" d="M37.643,55.048v-1.533h2.483v1.729c0,0.958,0.08,1.631,0.243,2.018c0.163,0.388,0.469,0.581,0.919,0.581
				s0.748-0.159,0.896-0.479c0.146-0.319,0.219-0.84,0.219-1.563c0-0.724-0.13-1.354-0.392-1.892
				c-0.26-0.537-0.674-1.099-1.24-1.686L39.5,50.916c-0.593-0.621-1.055-1.262-1.384-1.927c-0.328-0.664-0.493-1.433-0.493-2.305
				c0-1.421,0.273-2.476,0.821-3.167c0.546-0.689,1.488-1.035,2.824-1.035c1.337,0,2.24,0.401,2.713,1.207
				c0.472,0.806,0.708,1.979,0.708,3.522v1.066h-2.413v-1.231c0-0.834-0.073-1.433-0.216-1.795c-0.144-0.361-0.42-0.541-0.825-0.541
				c-0.408,0-0.702,0.137-0.88,0.41c-0.18,0.272-0.27,0.684-0.27,1.23c0,0.548,0.091,0.984,0.274,1.311
				c0.182,0.325,0.511,0.741,0.986,1.251l1.418,1.534c0.71,0.769,1.247,1.547,1.607,2.335c0.362,0.788,0.543,1.648,0.543,2.58
				c0,1.608-0.271,2.798-0.812,3.566c-0.541,0.77-1.487,1.154-2.84,1.154c-1.352,0-2.292-0.429-2.824-1.287
				C37.908,57.939,37.643,56.69,37.643,55.048z"/>
			<path fill="#262729" d="M46.817,59.885V42.687h5.768v2.257h-3.147v5.003h2.992v2.208h-2.992v5.473h3.265v2.257H46.817z"/>
			<path fill="#262729" d="M54.694,59.885V42.687h5.768v2.257h-3.147v5.003h2.99v2.208h-2.99v5.473h3.265v2.257H54.694z"/>
			<path fill="#262729" d="M62.569,59.885V42.687h2.62v7.915l2.62-7.915h2.707l-2.854,8.482l3.079,8.716h-2.767l-2.766-8.031v8.031
				H62.569z"/>
		</g>
	</g>
	<g>
		<g>
			<path fill="#262729" d="M32.163,74.934h-0.575l-2.77-3.676l-0.411-0.629h-0.013v4.305h-0.628v-5.356h0.575l2.79,3.702
				l0.392,0.603h0.013v-4.305h0.628V74.934z"/>
			<path fill="#262729" d="M38.283,69.577l-2.228,3.107v2.249H35.42v-2.249l-2.236-3.107h0.794l1.388,1.964l0.364,0.615h0.013
				l0.357-0.615l1.395-1.964H38.283z"/>
			<path fill="#262729" d="M42.758,70.788c-0.311-0.417-0.794-0.682-1.521-0.682c-1.402,0-1.984,0.984-1.984,2.183
				c0,1.178,0.556,2.115,1.977,2.115c0.728,0,1.21-0.257,1.521-0.674l0.469,0.45C42.777,74.695,42.109,75,41.223,75
				c-1.725,0-2.617-1.085-2.617-2.711c0-1.627,0.932-2.778,2.624-2.778c0.906,0,1.561,0.306,2.004,0.821L42.758,70.788z"/>
		</g>
	</g>
	<rect x="19.257" y="64.372" fill="#262729" width="32.485" height="0.651"/>
</g>
</svg>
