<?xml version="1.0" encoding="utf-8"?>
<!-- Generator: Adobe Illustrator 16.0.4, SVG Export Plug-In . SVG Version: 6.00 Build 0)  -->
<!DOCTYPE svg PUBLIC "-//W3C//DTD SVG 1.1//EN" "http://www.w3.org/Graphics/SVG/1.1/DTD/svg11.dtd">
<svg version="1.1" id="Layer_1" xmlns="http://www.w3.org/2000/svg" xmlns:xlink="http://www.w3.org/1999/xlink" x="0px" y="0px"
	 width="145px" height="48px" viewBox="0 0 145 48" enable-background="new 0 0 145 48" xml:space="preserve">
<g>
	<g>
		<g>
			<polygon fill="#AFCDD4" points="12.925,32.82 12.925,38.508 24.301,27.13 35.68,38.508 35.68,32.82 24.301,21.443 			"/>
			<polygon fill="#FF9A33" points="12.925,25.472 12.925,31.161 24.301,19.784 35.68,31.161 35.68,25.472 24.301,14.096 			"/>
			<polygon fill="#FB500B" points="33.758,16.203 33.758,11.253 31.228,11.253 31.228,13.676 24.301,6.747 12.925,18.125 
				12.925,23.812 24.301,12.436 35.68,23.812 35.68,18.125 			"/>
		</g>
		<path fill="#AFCDD4" d="M24.301,48c-13.233,0-24-10.766-24-24s10.767-24,24-24c13.234,0,24,10.766,24,24S37.535,48,24.301,48z
			 M24.301,2.526C12.461,2.526,2.827,12.159,2.827,24s9.634,21.475,21.474,21.475c11.841,0,21.475-9.634,21.475-21.475
			S36.142,2.526,24.301,2.526z"/>
	</g>
	<g>
		<g>
			<path fill="#262729" d="M53.759,35.101V12.909h3.379v8.978h3.027v-8.978h3.379v22.191h-3.379V24.786h-3.027v10.314H53.759z"/>
			<path fill="#262729" d="M66.469,35.101V12.909h7.439v2.913h-4.061v6.455h3.859v2.85h-3.859v7.061h4.212v2.913H66.469z"/>
			<path fill="#262729" d="M76.14,35.101l3.165-22.191h4.465l3.367,22.191h-3.153l-0.529-3.959h-3.582l-0.479,3.959H76.14z
				 M83.1,28.432l-1.486-11.146h-0.051l-1.361,11.146H83.1z"/>
			<path fill="#262729" d="M90.075,35.101V15.834h-2.597v-2.925h8.463v2.925h-2.499v19.267H90.075z"/>
			<path fill="#262729" d="M101.994,28.858v-1.978h3.202v2.23c0,1.235,0.104,2.104,0.315,2.604c0.21,0.499,0.605,0.75,1.186,0.75
				s0.965-0.206,1.155-0.619c0.188-0.411,0.282-1.083,0.282-2.017s-0.167-1.746-0.505-2.439c-0.335-0.693-0.869-1.419-1.601-2.175
				l-1.64-1.69c-0.765-0.799-1.36-1.626-1.784-2.484c-0.424-0.856-0.637-1.848-0.637-2.976c0-1.831,0.353-3.194,1.06-4.085
				c0.705-0.891,1.921-1.336,3.645-1.336c1.722,0,2.89,0.519,3.498,1.557c0.61,1.039,0.915,2.555,0.915,4.546v1.374h-3.115v-1.588
				c0-1.076-0.093-1.848-0.277-2.314s-0.54-0.699-1.064-0.699c-0.526,0-0.905,0.176-1.135,0.529
				c-0.232,0.352-0.348,0.882-0.348,1.588c0,0.707,0.116,1.27,0.354,1.691c0.235,0.418,0.66,0.957,1.273,1.613l1.829,1.979
				c0.915,0.992,1.606,1.997,2.073,3.013c0.467,1.018,0.7,2.127,0.7,3.33c0,2.074-0.349,3.609-1.047,4.602s-1.919,1.488-3.662,1.488
				c-1.746,0-2.962-0.553-3.646-1.659C102.336,32.589,101.994,30.977,101.994,28.858z"/>
			<path fill="#262729" d="M113.832,35.101V12.909h7.441v2.913h-4.061v6.455h3.859v2.85h-3.859v7.061h4.211v2.913H113.832z"/>
			<path fill="#262729" d="M123.995,35.101V12.909h7.439v2.913h-4.061v6.455h3.859v2.85h-3.859v7.061h4.212v2.913H123.995z"/>
			<path fill="#262729" d="M134.156,35.101V12.909h3.38v10.212l3.38-10.212h3.494l-3.683,10.944l3.972,11.247h-3.57l-3.568-10.364
				v10.364H134.156z"/>
		</g>
	</g>
</g>
</svg>
